<?xml version="1.0" encoding="UTF-8" ?>
<!DOCTYPE svg PUBLIC "-//W3C//DTD SVG 1.1//EN" "http://www.w3.org/Graphics/SVG/1.1/DTD/svg11.dtd">
<svg width="350pt" height="277pt" viewBox="0 0 350 277" version="1.1" xmlns="http://www.w3.org/2000/svg">
<path fill="#ffffff" d=" M 0.00 0.00 L 94.80 0.00 C 94.45 3.30 94.09 6.59 93.72 9.89 C 90.44 9.88 87.16 9.87 83.88 9.88 C 83.84 39.80 83.94 69.72 83.82 99.64 C 81.02 126.26 78.02 152.85 75.13 179.46 C 78.04 179.79 80.96 180.11 83.88 180.41 C 83.87 183.77 83.87 187.14 83.90 190.51 C 113.37 190.59 142.85 190.31 172.32 190.65 C 175.86 190.85 179.42 190.95 182.95 191.34 C 207.03 194.04 231.12 196.67 255.20 199.34 C 255.51 196.39 255.84 193.45 256.17 190.50 C 259.13 190.50 262.09 190.50 265.06 190.50 C 265.09 163.42 265.01 136.35 265.10 109.28 C 268.28 79.46 271.65 49.66 274.85 19.84 C 271.58 19.50 268.32 19.13 265.06 18.74 C 265.06 15.79 265.06 12.83 265.06 9.88 C 237.87 9.81 210.68 10.00 183.49 9.78 C 154.42 6.42 125.30 3.54 96.25 0.00 L 350.00 0.00 L 350.00 220.00 C 345.29 220.00 340.57 220.00 335.86 219.99 C 335.86 215.78 335.86 211.56 335.86 207.35 C 332.47 208.19 329.09 209.03 325.70 209.86 C 325.69 213.23 325.69 216.61 325.70 219.99 C 323.17 219.99 320.65 220.00 318.14 220.01 C 318.14 221.91 318.14 223.82 318.15 225.73 C 320.66 225.73 323.18 225.73 325.70 225.74 C 325.69 236.50 325.69 247.26 325.69 258.02 C 325.73 262.98 326.29 268.38 329.59 272.34 C 332.04 275.29 335.90 276.38 339.53 277.00 L 263.68 277.00 C 265.44 276.69 267.17 276.27 268.92 275.88 C 268.72 274.12 268.52 272.36 268.32 270.60 C 266.47 270.35 264.06 270.98 262.77 269.22 C 260.98 266.89 260.88 263.79 260.71 260.99 C 260.50 251.64 260.87 242.29 260.56 232.95 C 260.35 227.53 257.15 222.10 251.89 220.24 C 242.33 216.80 231.97 219.62 222.90 223.23 C 222.81 226.79 222.80 230.36 222.82 233.93 C 224.72 233.92 226.63 233.91 228.54 233.91 C 228.75 231.99 228.96 230.07 229.17 228.15 C 231.81 226.25 234.62 224.34 237.94 223.96 C 241.92 223.27 246.77 224.26 248.85 228.09 C 251.25 232.56 250.35 237.84 250.52 242.71 C 241.87 242.86 232.49 243.03 225.06 248.05 C 217.15 253.38 216.38 266.26 223.42 272.61 C 226.04 275.22 229.65 276.50 233.26 277.00 L 199.20 277.00 C 203.45 276.47 207.60 275.34 211.62 273.88 C 211.61 271.54 211.61 269.21 211.62 266.89 C 205.40 269.40 198.40 271.10 191.78 269.16 C 185.54 267.29 181.43 261.30 180.24 255.13 C 178.66 247.03 179.36 238.06 183.91 230.99 C 186.34 227.16 190.33 224.00 195.02 223.81 C 198.71 223.43 202.16 225.01 205.31 226.76 C 205.50 229.15 205.71 231.53 205.93 233.92 C 207.82 233.92 209.72 233.92 211.62 233.92 C 211.61 229.67 211.60 225.43 211.61 221.19 C 203.28 219.27 194.35 217.32 185.98 220.10 C 177.27 222.86 171.05 231.03 169.43 239.86 C 167.57 249.81 169.02 261.18 176.20 268.80 C 180.58 273.72 186.99 276.32 193.45 277.00 L 79.67 277.00 C 84.99 276.59 90.17 275.17 95.13 273.26 C 95.12 270.72 95.12 268.18 95.13 265.65 C 87.62 269.47 78.08 272.06 70.21 267.82 C 62.92 263.57 60.80 254.49 60.73 246.64 C 72.19 246.63 83.64 246.59 95.10 246.66 C 95.32 238.85 94.34 230.16 88.74 224.22 C 83.42 218.46 74.63 217.68 67.43 219.68 C 58.83 222.22 52.76 230.26 50.93 238.81 C 49.16 247.42 49.84 256.91 54.50 264.54 C 58.70 271.66 66.42 276.28 74.62 277.00 L 0.00 277.00 L 0.00 275.75 C 16.00 275.75 32.00 275.75 48.00 275.76 C 47.99 271.75 47.99 267.74 48.03 263.73 C 46.11 263.71 44.18 263.68 42.25 263.66 C 42.25 265.77 42.25 267.88 42.24 270.00 C 32.33 270.00 22.41 270.01 12.50 269.99 C 23.57 255.55 34.59 241.07 45.68 226.64 C 47.37 224.84 46.69 222.23 46.89 220.01 C 31.67 219.99 16.46 220.00 1.24 220.01 C 1.25 224.02 1.25 228.04 1.25 232.06 C 3.16 232.06 5.08 232.06 7.00 232.07 C 7.00 229.75 7.00 227.44 7.00 225.12 C 16.27 225.13 25.53 225.12 34.80 225.13 C 23.22 240.32 11.51 255.41 0.00 270.65 L 0.00 0.00 Z" />
<path fill="#cc2129" d=" M 94.80 0.00 L 96.25 0.00 C 125.30 3.54 154.42 6.42 183.49 9.78 C 153.57 10.02 123.64 9.80 93.72 9.89 C 94.09 6.59 94.45 3.30 94.80 0.00 Z" />
<path fill="#060909" d=" M 83.88 9.88 C 87.16 9.87 90.44 9.88 93.72 9.89 C 123.64 9.80 153.57 10.02 183.49 9.78 C 210.68 10.00 237.87 9.81 265.06 9.88 C 265.06 12.83 265.06 15.79 265.06 18.74 C 265.10 48.92 265.01 79.10 265.10 109.28 C 265.01 136.35 265.09 163.42 265.06 190.50 C 262.09 190.50 259.13 190.50 256.17 190.50 C 230.12 190.50 204.07 190.47 178.02 190.52 C 176.25 190.45 174.50 190.28 172.75 190.02 C 172.64 190.18 172.43 190.50 172.32 190.65 C 142.85 190.31 113.37 190.59 83.90 190.51 C 83.87 187.14 83.87 183.77 83.88 180.41 C 83.84 153.49 83.96 126.56 83.82 99.64 C 83.94 69.72 83.84 39.80 83.88 9.88 Z" />
<path fill="#d34f2a" d=" M 171.66 21.74 C 176.22 16.81 183.76 16.86 189.85 18.26 C 201.13 21.11 211.08 27.66 219.98 34.96 C 226.27 40.32 232.85 45.77 236.64 53.29 C 243.25 65.72 247.72 80.12 245.68 94.30 C 244.32 88.91 243.50 83.39 241.86 78.07 C 238.48 68.12 232.77 59.05 225.78 51.25 C 216.71 42.19 205.33 35.30 192.82 32.25 C 186.44 30.59 179.77 29.58 173.20 30.65 L 173.02 30.67 C 171.31 28.11 169.30 24.56 171.66 21.74 Z" />
<path fill="#cc2129" d=" M 265.06 18.74 C 268.32 19.13 271.58 19.50 274.85 19.84 C 271.65 49.66 268.28 79.46 265.10 109.28 C 265.01 79.10 265.10 48.92 265.06 18.74 Z" />
<path fill="#da672b" d=" M 173.20 30.65 C 179.77 29.58 186.44 30.59 192.82 32.25 C 205.33 35.30 216.71 42.19 225.78 51.25 C 232.77 59.05 238.48 68.12 241.86 78.07 C 243.50 83.39 244.32 88.91 245.68 94.30 C 244.84 102.68 238.62 108.95 232.02 113.48 C 232.36 108.97 233.23 104.51 233.23 99.98 C 232.59 87.00 228.40 74.02 220.16 63.82 C 214.71 57.15 207.72 51.80 200.03 47.96 C 198.51 47.02 196.70 47.49 195.05 47.63 C 187.33 42.61 179.25 37.72 173.20 30.65 Z" />
<path fill="#de782c" d=" M 195.05 47.63 C 196.70 47.49 198.51 47.02 200.03 47.96 C 207.72 51.80 214.71 57.15 220.16 63.82 C 228.40 74.02 232.59 87.00 233.23 99.98 C 233.23 104.51 232.36 108.97 232.02 113.48 C 230.26 114.25 227.29 114.64 227.28 111.92 C 227.33 98.33 226.89 83.95 220.28 71.72 C 214.62 61.23 204.75 54.09 195.05 47.63 Z" />
<path fill="#de7a2b" d=" M 130.15 57.58 C 139.54 54.41 149.22 51.93 159.09 50.83 C 164.81 50.20 170.67 50.04 176.30 51.41 C 168.19 52.27 159.87 53.52 152.72 57.72 C 142.60 62.94 134.77 72.11 130.79 82.73 C 130.36 84.08 130.68 85.51 130.67 86.89 C 124.79 92.99 119.86 99.88 114.70 106.57 C 113.67 101.98 113.62 97.24 114.50 92.62 C 115.68 83.47 118.93 74.64 123.82 66.83 C 125.88 63.72 128.16 60.75 130.15 57.58 Z" />
<path fill="#e7932c" d=" M 152.72 57.72 C 159.87 53.52 168.19 52.27 176.30 51.41 C 180.91 52.35 185.39 55.01 187.70 59.20 C 189.09 61.56 186.70 63.83 184.60 64.52 C 179.35 66.41 173.74 66.95 168.43 68.64 C 155.01 72.63 141.60 77.93 130.67 86.89 C 130.68 85.51 130.36 84.08 130.79 82.73 C 134.77 72.11 142.60 62.94 152.72 57.72 Z" />
<path fill="#d65c2b" d=" M 97.65 87.26 C 104.72 74.14 115.84 62.57 130.15 57.58 C 128.16 60.75 125.88 63.72 123.82 66.83 C 118.93 74.64 115.68 83.47 114.50 92.62 C 113.62 97.24 113.67 101.98 114.70 106.57 C 110.47 111.69 106.06 117.76 99.09 119.02 C 98.50 113.34 97.29 107.71 97.39 101.97 C 97.44 97.39 97.57 92.80 97.55 88.22 L 97.65 87.26 Z" />
<path fill="#eba12c" d=" M 190.96 75.45 C 193.44 72.54 196.87 70.75 200.64 70.18 C 204.73 75.95 209.66 81.41 211.67 88.34 C 212.78 92.42 212.99 96.68 214.13 100.76 L 214.16 100.88 C 210.44 103.43 205.92 104.21 201.49 103.95 L 202.20 103.62 C 202.83 103.34 204.09 102.78 204.72 102.49 C 205.68 91.92 200.67 80.39 190.96 75.45 Z" />
<path fill="#e7932c" d=" M 200.64 70.18 C 204.73 70.31 209.17 70.77 212.27 73.76 C 219.92 80.19 221.65 93.62 214.13 100.76 C 212.99 96.68 212.78 92.42 211.67 88.34 C 209.66 81.41 204.73 75.95 200.64 70.18 Z" />
<path fill="#f0b12b" d=" M 154.15 78.68 C 160.84 76.44 168.30 75.10 175.15 77.46 C 168.85 78.66 162.30 81.00 158.27 86.28 C 154.62 90.91 152.76 96.97 153.62 102.84 L 153.63 103.10 C 151.58 105.07 150.00 107.44 148.70 109.96 C 144.70 104.92 145.43 97.94 147.01 92.13 C 148.19 87.09 151.50 83.01 154.15 78.68 Z" />
<path fill="#f2b82a" d=" M 186.14 92.94 C 184.58 86.72 187.54 80.50 190.96 75.45 C 200.67 80.39 205.68 91.92 204.72 102.49 C 204.09 102.78 202.83 103.34 202.20 103.62 C 195.55 103.60 188.12 99.67 186.14 92.94 Z" />
<path fill="#f6c229" d=" M 158.27 86.28 C 162.30 81.00 168.85 78.66 175.15 77.46 C 177.15 78.48 179.54 80.45 178.87 82.98 C 177.02 86.36 173.55 88.39 170.55 90.64 C 164.82 94.59 159.05 98.48 153.62 102.84 C 152.76 96.97 154.62 90.91 158.27 86.28 Z" />
<path fill="#e99c2c" d=" M 133.85 92.75 C 139.71 86.92 146.34 81.62 154.15 78.68 C 151.50 83.01 148.19 87.09 147.01 92.13 C 145.43 97.94 144.70 104.92 148.70 109.96 C 147.11 114.39 146.31 119.03 145.75 123.69 C 145.34 125.45 144.84 127.19 144.34 128.93 C 136.01 119.00 131.58 105.67 133.85 92.75 Z" />
<path fill="#d03d2a" d=" M 97.55 87.53 L 97.55 88.22 C 97.57 92.80 97.44 97.39 97.39 101.97 C 97.29 107.71 98.50 113.34 99.09 119.02 C 94.28 118.25 91.17 113.68 90.91 109.04 C 90.32 101.33 93.83 94.06 97.55 87.53 Z" />
<path fill="#e2842c" d=" M 122.73 116.59 C 124.72 108.00 128.27 99.65 133.85 92.75 C 131.58 105.67 136.01 119.00 144.34 128.93 C 144.84 127.19 145.34 125.45 145.75 123.69 C 145.44 131.00 145.85 138.31 146.85 145.55 C 143.39 145.31 140.73 142.91 138.25 140.75 C 131.12 134.16 126.21 125.58 122.73 116.59 Z" />
<path fill="#f6c229" d=" M 174.19 101.16 C 176.29 99.64 179.41 98.15 181.81 99.91 C 184.02 101.94 183.99 105.16 184.05 107.93 C 184.03 112.07 184.27 116.20 184.68 120.32 C 177.71 123.33 169.90 122.30 163.25 119.02 C 165.06 112.20 168.45 105.48 174.19 101.16 Z" />
<path fill="#cc2129" d=" M 75.13 179.46 C 78.02 152.85 81.02 126.26 83.82 99.64 C 83.96 126.56 83.84 153.49 83.88 180.41 C 80.96 180.11 78.04 179.79 75.13 179.46 Z" />
<path fill="#da672b" d=" M 122.73 116.59 C 126.21 125.58 131.12 134.16 138.25 140.75 C 140.73 142.91 143.39 145.31 146.85 145.55 L 147.00 145.58 C 148.41 153.31 149.92 161.03 151.27 168.78 C 146.71 166.71 142.03 164.86 137.76 162.21 C 133.05 159.39 128.98 155.64 124.30 152.77 C 120.87 141.08 120.07 128.53 122.73 116.59 Z" />
<path fill="#f0b12b" d=" M 163.25 119.02 C 169.90 122.30 177.71 123.33 184.68 120.32 L 184.79 120.29 C 185.29 122.67 185.99 125.01 186.81 127.30 C 183.36 128.69 179.76 129.99 175.99 130.00 C 171.31 130.13 166.85 128.48 162.45 127.10 C 162.56 124.39 162.81 121.69 163.25 119.02 Z" />
<path fill="#e99c2c" d=" M 162.45 127.10 C 166.85 128.48 171.31 130.13 175.99 130.00 C 179.76 129.99 183.36 128.69 186.81 127.30 L 186.99 127.23 C 189.45 132.08 194.86 133.82 199.41 136.06 C 190.34 142.97 178.46 144.16 167.44 143.23 C 164.55 138.32 162.81 132.80 162.45 127.10 Z" />
<path fill="#d8632b" d=" M 218.48 137.15 C 224.73 136.27 230.82 134.47 237.11 133.87 C 237.48 134.29 238.22 135.13 238.59 135.54 C 233.21 146.49 224.20 155.49 213.84 161.81 C 212.20 162.82 210.90 164.27 209.69 165.74 L 209.59 165.86 C 199.70 166.64 190.18 162.55 181.91 157.49 C 195.82 155.38 210.16 149.17 218.37 137.29 L 218.48 137.15 Z" />
<path fill="#d24c2b" d=" M 237.11 133.87 C 239.40 134.05 242.64 135.13 242.01 138.09 C 241.10 142.71 237.88 146.42 235.03 150.01 C 228.57 157.69 219.94 164.50 209.69 165.74 C 210.90 164.27 212.20 162.82 213.84 161.81 C 224.20 155.49 233.21 146.49 238.59 135.54 C 238.22 135.13 237.48 134.29 237.11 133.87 Z" />
<path fill="#e1812c" d=" M 199.41 136.06 C 205.54 138.04 212.04 138.02 218.37 137.29 C 210.16 149.17 195.82 155.38 181.91 157.49 C 176.23 153.73 171.05 149.06 167.44 143.23 C 178.46 144.16 190.34 142.97 199.41 136.06 Z" />
<path fill="#d24c2b" d=" M 124.30 152.77 C 128.98 155.64 133.05 159.39 137.76 162.21 C 142.03 164.86 146.71 166.71 151.27 168.78 C 151.66 171.56 151.93 174.35 152.23 177.15 C 144.60 175.22 137.76 171.34 130.82 167.79 C 127.70 163.27 125.83 158.01 124.30 152.77 Z" />
<path fill="#cf362a" d=" M 130.82 167.79 C 137.76 171.34 144.60 175.22 152.23 177.15 C 151.95 178.53 151.88 180.29 150.04 180.34 C 141.84 180.37 134.82 174.56 130.82 167.79 Z" />
<path fill="#cc2129" d=" M 172.32 190.65 C 172.43 190.50 172.64 190.18 172.75 190.02 C 174.50 190.28 176.25 190.45 178.02 190.52 C 204.07 190.47 230.12 190.50 256.17 190.50 C 255.84 193.45 255.51 196.39 255.20 199.34 C 231.12 196.67 207.03 194.04 182.95 191.34 C 179.42 190.95 175.86 190.85 172.32 190.65 Z" />
<path fill="#ea8a23" d=" M 325.70 209.86 C 329.09 209.03 332.47 208.19 335.86 207.35 C 335.86 211.56 335.86 215.78 335.86 219.99 C 340.57 220.00 345.29 220.00 350.00 220.00 L 350.00 225.73 C 345.29 225.73 340.58 225.73 335.87 225.74 C 335.85 236.82 335.86 247.90 335.85 258.97 C 335.96 262.73 336.13 267.15 339.23 269.79 C 342.36 272.29 346.64 271.13 350.00 269.78 L 350.00 275.38 C 348.09 275.26 346.28 275.92 344.74 277.00 L 339.53 277.00 C 335.90 276.38 332.04 275.29 329.59 272.34 C 326.29 268.38 325.73 262.98 325.69 258.02 C 325.69 247.26 325.69 236.50 325.70 225.74 C 323.18 225.73 320.66 225.73 318.15 225.73 C 318.14 223.82 318.14 221.91 318.14 220.01 C 320.65 220.00 323.17 219.99 325.70 219.99 C 325.69 216.61 325.69 213.23 325.70 209.86 Z" />
<path fill="#231f20" d=" M 67.43 219.68 C 74.63 217.68 83.42 218.46 88.74 224.22 C 94.34 230.16 95.32 238.85 95.10 246.66 C 83.64 246.59 72.19 246.63 60.73 246.64 C 60.80 254.49 62.92 263.57 70.21 267.82 C 78.08 272.06 87.62 269.47 95.13 265.65 C 95.12 268.18 95.12 270.72 95.13 273.26 C 90.17 275.17 84.99 276.59 79.67 277.00 L 74.62 277.00 C 66.42 276.28 58.70 271.66 54.50 264.54 C 49.84 256.91 49.16 247.42 50.93 238.81 C 52.76 230.26 58.83 222.22 67.43 219.68 Z" />
<path fill="#231f20" d=" M 132.80 219.77 C 138.19 218.12 144.72 218.01 149.33 221.69 C 153.59 225.10 155.18 230.76 155.17 236.02 C 155.23 247.55 155.17 259.08 155.20 270.62 C 157.72 270.61 160.25 270.61 162.77 270.68 C 162.76 272.37 162.75 274.06 162.74 275.75 C 154.31 275.77 145.88 275.73 137.45 275.77 C 137.45 274.05 137.44 272.34 137.45 270.63 C 139.96 270.62 142.47 270.62 144.99 270.62 C 145.01 260.08 145.00 249.53 145.00 238.98 C 144.90 235.60 145.01 231.91 143.09 228.96 C 141.51 226.74 138.53 226.34 136.00 226.36 C 129.90 226.52 124.62 230.29 120.55 234.55 C 119.37 235.69 120.06 237.53 119.86 238.98 C 119.89 249.50 119.92 260.02 119.84 270.55 C 122.36 270.63 124.89 270.63 127.41 270.63 C 127.42 272.33 127.43 274.03 127.45 275.74 C 119.01 275.76 110.56 275.75 102.12 275.75 C 102.12 274.03 102.12 272.32 102.13 270.61 C 104.64 270.62 107.15 270.62 109.67 270.62 C 109.72 255.46 109.66 240.29 109.70 225.12 C 107.17 225.13 104.65 225.12 102.12 225.13 C 102.12 223.41 102.12 221.71 102.12 220.00 C 108.04 220.00 113.96 220.00 119.88 220.00 C 119.88 223.41 119.89 226.82 119.87 230.24 C 123.10 225.66 127.32 221.45 132.80 219.77 Z" />
<path fill="#ea8a23" d=" M 185.98 220.10 C 194.35 217.32 203.28 219.27 211.61 221.19 C 211.60 225.43 211.61 229.67 211.62 233.92 C 209.72 233.92 207.82 233.92 205.93 233.92 C 205.71 231.53 205.50 229.15 205.31 226.76 C 202.16 225.01 198.71 223.43 195.02 223.81 C 190.33 224.00 186.34 227.16 183.91 230.99 C 179.36 238.06 178.66 247.03 180.24 255.13 C 181.43 261.30 185.54 267.29 191.78 269.16 C 198.40 271.10 205.40 269.40 211.62 266.89 C 211.61 269.21 211.61 271.54 211.62 273.88 C 207.60 275.34 203.45 276.47 199.20 277.00 L 193.45 277.00 C 186.99 276.32 180.58 273.72 176.20 268.80 C 169.02 261.18 167.57 249.81 169.43 239.86 C 171.05 231.03 177.27 222.86 185.98 220.10 Z" />
<path fill="#ea8a23" d=" M 222.90 223.23 C 231.97 219.62 242.33 216.80 251.89 220.24 C 257.15 222.10 260.35 227.53 260.56 232.95 C 260.87 242.29 260.50 251.64 260.71 260.99 C 260.88 263.79 260.98 266.89 262.77 269.22 C 264.06 270.98 266.47 270.35 268.32 270.60 C 268.52 272.36 268.72 274.12 268.92 275.88 C 267.17 276.27 265.44 276.69 263.68 277.00 L 260.42 277.00 C 256.15 276.07 253.86 272.18 252.74 268.28 C 248.40 272.46 243.20 276.04 237.12 277.00 L 233.26 277.00 C 229.65 276.50 226.04 275.22 223.42 272.61 C 216.38 266.26 217.15 253.38 225.06 248.05 C 232.49 243.03 241.87 242.86 250.52 242.71 C 250.35 237.84 251.25 232.56 248.85 228.09 C 246.77 224.26 241.92 223.27 237.94 223.96 C 234.62 224.34 231.81 226.25 229.17 228.15 C 228.96 230.07 228.75 231.99 228.54 233.91 C 226.63 233.91 224.72 233.92 222.82 233.93 C 222.80 230.36 222.81 226.79 222.90 223.23 Z" />
<path fill="#ea8a23" d=" M 290.72 230.15 C 294.95 222.77 303.28 217.02 312.09 219.09 C 312.25 223.82 312.16 228.56 312.17 233.30 C 310.06 233.30 307.95 233.30 305.84 233.30 C 305.82 231.36 305.80 229.41 305.79 227.47 C 299.76 227.28 294.67 230.94 290.73 235.14 C 290.71 246.95 290.77 258.76 290.71 270.56 C 293.25 270.64 295.79 270.66 298.34 270.65 C 298.30 272.36 298.25 274.06 298.21 275.77 C 289.81 275.69 281.41 275.75 273.01 275.74 C 273.00 274.04 273.00 272.34 273.00 270.65 C 275.52 270.64 278.05 270.64 280.58 270.64 C 280.58 255.47 280.56 240.30 280.59 225.13 C 278.06 225.12 275.53 225.11 273.00 225.11 C 273.00 223.41 273.00 221.70 273.00 220.00 C 278.91 220.00 284.83 219.98 290.74 220.02 C 290.73 223.39 290.74 226.77 290.72 230.15 Z" />
<path fill="#231f20" d=" M 1.24 220.01 C 16.46 220.00 31.67 219.99 46.89 220.01 C 46.69 222.23 47.37 224.84 45.68 226.64 C 34.59 241.07 23.57 255.55 12.50 269.99 C 22.41 270.01 32.33 270.00 42.24 270.00 C 42.25 267.88 42.25 265.77 42.25 263.66 C 44.18 263.68 46.11 263.71 48.03 263.73 C 47.99 267.74 47.99 271.75 48.00 275.76 C 32.00 275.75 16.00 275.75 0.00 275.75 L 0.00 270.65 C 11.51 255.41 23.22 240.32 34.80 225.13 C 25.53 225.12 16.27 225.13 7.00 225.12 C 7.00 227.44 7.00 229.75 7.00 232.07 C 5.08 232.06 3.16 232.06 1.25 232.06 C 1.25 228.04 1.25 224.02 1.24 220.01 Z" />
<path fill="#ffffff" d=" M 65.59 227.62 C 69.28 222.71 77.98 222.26 81.54 227.55 C 84.28 231.61 84.30 236.72 84.42 241.44 C 76.75 241.44 69.08 241.45 61.41 241.43 C 61.91 236.65 62.55 231.55 65.59 227.62 Z" />
<path fill="#ffffff" d=" M 335.87 225.74 C 340.58 225.73 345.29 225.73 350.00 225.73 L 350.00 269.78 C 346.64 271.13 342.36 272.29 339.23 269.79 C 336.13 267.15 335.96 262.73 335.85 258.97 C 335.86 247.90 335.85 236.82 335.87 225.74 Z" />
<path fill="#ffffff" d=" M 233.40 251.37 C 238.32 247.86 244.68 247.99 250.46 247.80 C 250.58 253.66 250.50 259.52 250.51 265.38 C 246.10 268.33 240.52 271.54 235.15 269.17 C 228.24 266.32 227.43 255.60 233.40 251.37 Z" />
<path fill="#ffffff" d=" M 237.12 277.00 C 243.20 276.04 248.40 272.46 252.74 268.28 C 253.86 272.18 256.15 276.07 260.42 277.00 L 237.12 277.00 Z" />
<path fill="#ffffff" d=" M 344.74 277.00 C 346.28 275.92 348.09 275.26 350.00 275.38 L 350.00 277.00 L 344.74 277.00 Z" />
</svg>
